<?xml version="1.0" encoding="UTF-8"?>
<svg width="1200pt" height="1200pt" version="1.1" viewBox="0 0 1200 1200" xmlns="http://www.w3.org/2000/svg">
 <g>
  <path d="m35.887 955.62 192.96 6.4805c28.32 11.281 91.922-14.641 91.922-14.641 22.32-0.96094 32.16-7.1992 70.801 0.96094 33.602 6.9609 81.359-0.96094 81.359-0.96094 39.602-4.3203 160.08 9.3594 160.08 9.3594 30 24.961 57.121-0.71875 73.922 34.078 4.3203 8.6406 8.6406 13.922 8.6406 13.922 0.78516 0.40625 1.8945 0.72656 2.793 1.1055-6.9375 15.949 2.2891 39.387 13.723 44.859 34.695 16.613 144.56 14.426 165.7 14.984 2.3789 0.0625 4.6562 0.61719 6.9258 1.3359 14.613 4.6133 41.363 5.2422 51.812 5.3047 3.0117 0.015626 5.9727 0.76563 8.7969 1.8164 11.359 4.2344 17.332 3.0312 20.156 1.6172 1.6719-0.83594 3.5078-0.97266 5.2617-0.33203 17.082 6.2461 45.277 0.75781 52.789-0.88672 1.2773-0.28125 2.5898-0.023437 3.7695 0.55078 19.371 9.4297 16.574-14.082 16.574-14.082 2.957 0.10938 5.5039 0.87891 8.2383 1.3477 18.273 3.207 32.105 13.398 44.703 25.559-0.003906-0.066406-0.023438-0.11719-0.027344-0.18359 0.023438 0.023438 0.050782 0.042969 0.078125 0.066407-0.375-6.8477-1.9258-12.586-4.0781-17.699-0.24609-0.58203-0.40625-1.2461-0.67188-1.8086-0.90625-1.9219-2.0195-3.6133-3.1445-5.3008-0.53906-0.8125-1.0117-1.6914-1.5977-2.4492-1.0547-1.3672-2.2422-2.5742-3.4336-3.7852-0.87109-0.88672-1.7148-1.8008-2.6484-2.6055-1.082-0.92578-2.2305-1.75-3.3906-2.5703-1.2617-0.90234-2.5312-1.7812-3.875-2.5703-0.96875-0.55859-1.9531-1.0703-2.957-1.5742-1.7461-0.88672-3.5195-1.7031-5.3555-2.4258-0.67969-0.26562-1.3555-0.51953-2.0469-0.76172-2.3867-0.85547-4.8125-1.5977-7.2852-2.2188-0.14062-0.035157-0.28125-0.070313-0.42188-0.10938-1.1836-0.28906-2.3477-0.65234-3.5391-0.89844l-0.085938 0.19531c-25.293-5.0508-51.918 0.14062-51.918 0.14062-13.695-10.121-75.613-3.5703-75.613-3.5703-14.398-9.8984-45.793-17.688-60.277-20.898-4.8438-1.0742-9.7695-1.5156-14.723-1.7969-26.531-1.4883-55.551-11.051-69.055-16 1.0625-2.3906 1.4844-4.7773 1.4727-7.0938 16.73 6.9805 40.012 10.957 64.434 13.082 43.133 3.7812 89.133 1.957 105.99 1.0234 1.4922-0.10156 2.7578-0.375 3.8711-0.76953 3.2812-1.1055 5.168-3.2383 7.4375-5.0273 0.066406-0.054687 0.12891-0.10938 0.20312-0.16406 0.23047-0.17578 0.51172-0.30469 0.75391-0.47266 0.60156-0.41016 1.1914-0.82812 1.8867-1.1484 0.37109-0.17188 0.85938-0.24219 1.2656-0.375 0.64453-0.21875 1.2539-0.46875 2.0195-0.58203 0.64844-0.09375 1.5078-0.015625 2.2656-0.023438 0.74609-0.003906 1.3867-0.097656 2.2539 0.003906 0.046875 0.003907 0.11328 0.027344 0.16016 0.03125 1.6836 0.20703 3.5898 0.61328 5.8242 1.293 1.4102 0.33203 2.7852 0.17578 4.168 0.12109 2.7852-0.070313 5.5117-0.66406 7.8438-2.3633 0.39453-0.28906 0.98438-0.42188 1.4336-0.66797 6.0391-3.1914 15.984-3.3281 15.984-3.3281 3.5664 1.5352 6.5352 2.1523 9.2812 2.4805 7.4219 0.94922 12.055-1.6719 14.891-4.9844 0.95703-1.0742 1.8867-2.1758 2.5117-3.2344 0.29688-0.59375 0.94531-0.96875 1.3828-1.4844 0.75781-0.85547 1.4062-1.8438 2.3984-2.3516 0.023438-0.011719 0.058594-0.015625 0.085938-0.027343 1.4219-0.70313 3.0469-0.84375 4.6836-0.65234 0.22656 0.03125 0.45703-0.035156 0.67969 0.023437 11.723 2.2461 30.184 10.227 30.184 10.227-0.054687-0.046875-0.10156-0.078125-0.15625-0.125l0.070313 0.027344c-4.7031-4.3789-9.3398-7.9336-13.922-11.125-0.90625-0.63281-1.8086-1.2773-2.7109-1.8711-4.5742-2.9883-9.0625-5.4844-13.441-7.4648-0.089844-0.039062-0.17969-0.10938-0.26953-0.14844-0.20313-0.089843-0.39063-0.11719-0.58984-0.20703-4.5547-2.0039-8.9844-3.5625-13.254-4.6562-0.046876-0.011719-0.097657-0.03125-0.14453-0.042969-4.3242-1.1016-8.4492-1.7695-12.402-2.1289-0.32812-0.027344-0.64062-0.050781-0.96875-0.078125-7.8281-0.61328-14.824-0.027343-20.719 1.125-0.15234 0.027344-0.29687 0.054688-0.44531 0.085938-12.008 2.418-19.363 6.8633-19.363 6.8633-2.625 1.0195-5.9883 1.7148-9.6211 2.2852-18.988 2.9102-48.844 0.42578-63.914-1.2461-4.7383-0.5-9.4766-1.9961-13.469-4.4922-16.723-10.453-61.734-22.328-90.258-29.207 12.238-18.906 24.465-37.098 51.535-46.613 3.6016-1.1992 6.7188-2.3984 10.078-3.8398 159.36-59.281 273.12-203.76 289.44-372.48 1.4414-14.879 2.6406-28.801 3.1211-42-7.9219 2.8789-16.32 4.0781-25.68 4.0781-7.4414 0-15.121-0.71875-22.801-1.6797-6-0.71875-12-1.4414-18-1.4414-8.8789 0.48047-15.84 5.0391-17.039 7.1992l4.0781 18.719-17.039 6.4805c-7.6797 3.8398-16.559 5.7617-25.922 5.7617-13.922 0-27.602-4.0781-39.602-7.6797-8.8789-2.6406-18-5.5195-24.48-5.5195-3.6016 0-4.5586 0.96094-5.7617 2.3984l-1.9219 2.6406c-7.4414 10.078-16.559 20.16-39.359 20.16l-4.0781-0.23828c-18.48-0.23828-38.398-0.48047-58.559-7.1992-48.48-16.559-54-52.32-56.641-67.68-0.23828-1.6797-0.48047-2.8789-0.71875-4.0781-1.6797-7.6797-5.5195-13.68-11.762-20.16-1.6797 27.602 9.3594 78.961 54.238 174.96 37.199 79.199 3.3594 151.44-54.48 182.64-185.52 100.8-258.24 16.32-350.64 16.32-8.6406-0.48047-31.68 0.48047-69.359-8.8789l-0.23828 0.23828c-4.5586-1.1992-20.879-5.0391-35.281-10.32-79.199 48.48-239.52 115.92-322.32 150-12.012 5.0469-8.8945 23.047 4.5469 23.527z"/>
  <path d="m885.73 428.11c16.559 3.3594 42.238-5.5195 59.52-75.602-21.012 20.473-22.723 16.984-25.199 18.719-10.574 3.4961-28.762 17.367-34.32 56.883z"/>
  <path d="m862.45 422.11c3.1875 1 8.3008-58.707 50.16-73.68 0 0 40.32-26.879 44.398-62.398l0.23828 0.23828c0-11.762 18.48-17.762-2.1602-37.199-80.398-76.078-137.76-58.078-128.64-11.52-9.3945 47.113-9.3359 156.76 36.004 184.56z"/>
  <path d="m1106.1 452.34c23.762-0.48047 47.762 9.3594 69.602-3.1211 11.039-303.84-165.12-319.92-180-330.96-119.76-27.359-170.4 43.68-170.4 43.68-6.7188 7.4414-9.3594 18-9.8398 29.039 10.32-11.52 25.68-17.762 43.68-17.762 32.879 0 72.719 20.879 112.56 58.32 20.16 19.199 18.719 36.719 14.641 47.52l2.3984-2.3984-20.16 81.602c-15.359 62.641-41.281 94.32-76.801 94.32-2.8789 0-5.7617-0.23828-8.3984-0.71875l-1.1992 10.559-32.16-19.922c-2.1602-1.4414-4.3203-2.8789-6.4805-4.5586 0.48047 1.4414 0.96094 2.6406 1.1992 4.0781 2.8789 12.719 1.9219 40.801 41.281 54.238 16.801 5.5195 34.559 5.7617 52.32 6 17.762 0.71875 18.238-4.5586 25.922-14.16 25.676-30 71.762 14.16 103.68-0.96094-4.3242-19.191 18.477-33.832 38.16-34.793zm-69.496-173.54c-21.223 0-38.43-20.102-38.43-44.898 0-24.793 17.207-44.891 38.43-44.891 21.223 0 38.43 20.094 38.43 44.891-0.003906 24.797-17.207 44.898-38.43 44.898z"/>
  <path d="m1036.6 209.4c-11.59 0-20.984 10.977-20.984 24.512 0 13.539 9.3945 24.516 20.984 24.516 11.59 0 20.984-10.977 20.984-24.516 0-13.535-9.3984-24.512-20.984-24.512zm5.7305 32.074c-5.0742 0-9.1914-4.1133-9.1914-9.1875 0-5.0742 4.1133-9.1914 9.1914-9.1914 5.0742 0 9.1914 4.1133 9.1914 9.1914 0 5.0742-4.1133 9.1875-9.1914 9.1875z"/>
  <path d="m804.73 381.12c0.097656-0.078126 0.14453-0.19531 0.24219-0.27344-148.04 68.051-223.18 139.15-280.07 161.47-77.695 30.48-97.883 74.395-151.48 104.52-51.207 27.848-80.293 11.008-133.37 53.926-0.17578 0.14062-0.34375 0.25-0.51953 0.39453-2.1602 1.6797-1.1992 5.2812 1.6797 5.7617 52.324 9.4023 55.531 34.938 140.4 58.801 0.058594-0.058594 0.097657-0.089844 0.15625-0.14844 25.051 6.9727 51.547 11.695 75.258 11.562 76.785-0.4375 99.301 32.145 176.65 30.805-0.019531 0.0625-0.039062 0.12109-0.058593 0.18359 39.457-0.63672 114.07-17.305 164.12-44.398 44.406-24.035 71.875-81.414 51.133-136.19-7.7266-20.336-103.52-198.64-43.832-246.56-0.11328 0.046875-0.20703 0.097656-0.3125 0.14844z"/>
 </g>
</svg>
